<?xml version="1.0" encoding="UTF-8" standalone="no"?>
<!-- Created with Inkscape (http://www.inkscape.org/) -->

<svg
   version="1.1"
   id="svg2"
   width="144"
   height="96.826668"
   viewBox="0 0 144 96.826668"
   sodipodi:docname="W-Logo_Purple_vector.eps"
   xmlns:inkscape="http://www.inkscape.org/namespaces/inkscape"
   xmlns:sodipodi="http://sodipodi.sourceforge.net/DTD/sodipodi-0.dtd"
   xmlns="http://www.w3.org/2000/svg"
   xmlns:svg="http://www.w3.org/2000/svg">
  <defs
     id="defs6" />
  <sodipodi:namedview
     id="namedview4"
     pagecolor="#ffffff"
     bordercolor="#000000"
     borderopacity="0.25"
     inkscape:showpageshadow="2"
     inkscape:pageopacity="0.0"
     inkscape:pagecheckerboard="0"
     inkscape:deskcolor="#d1d1d1" />
  <g
     id="g8"
     inkscape:groupmode="layer"
     inkscape:label="ink_ext_XXXXXX"
     transform="matrix(1.3333333,0,0,-1.3333333,0,96.826667)">
    <g
       id="g10"
       transform="scale(0.1)">
      <path
         d="m 792.59,726.199 c 0,-8.582 0,-122.383 0,-130.976 8.562,0 92.058,0 92.058,0 L 781.863,212.715 c 0,0 -125.769,506.355 -127.554,513.484 -6.868,0 -126.262,0 -133.032,0 C 519.402,719.238 383.32,212.684 383.32,212.684 l -94.66,382.539 c 0,0 87.258,0 95.852,0 0,8.593 0,122.394 0,130.976 -9.192,0 -375.31669,0 -384.512,0 0,-8.582 0,-122.383 0,-130.976 8.51172,0 85.1992,0 85.1992,0 0,0 147.0278,-588.08628 148.8048,-595.223 7.074,0 199.418,0 206.391,0 1.832,6.97266 98.523,374.543 98.523,374.543 0,0 91.875,-367.47269 93.641,-374.543 7.07,0 199.414,0 206.386,0 1.856,7.01953 156.563,595.223 156.563,595.223 0,0 75.992,0 84.492,0 0,8.593 0,122.394 0,130.976 -9.08,0 -278.328,0 -287.41,0"
        style="fill:#32006e;fill-opacity:1;fill-rule:nonzero;stroke:none"
         id="path12" />
    </g>
  </g>
</svg>
